<svg width="230" height="40" viewBox="0 0 230 40" fill="none" xmlns="http://www.w3.org/2000/svg">
<g clip-path="url(#clip0_97_1553)">
<path d="M22.6835 32.2389L31.8244 16.0964L36.5 23.9066L27.4404 39.9999L18.3776 39.9959L13.7025 32.1854L22.6835 32.2389Z" fill="white"/>
<path d="M36.8246 7.97549L18.2373 7.92377L22.7783 0.0351562L41.2829 0.0391694L45.7144 7.92421L41.1734 15.8133L36.8246 7.97549Z" fill="white"/>
<path d="M9.12039 7.66878L18.3477 23.7622L9.22724 23.772L-2.09808e-05 7.77357L4.64155 0.00981004L13.7615 0L9.12039 7.66878Z" fill="white"/>
</g>
<path d="M83.3644 11.59L74.8744 31H69.8944L61.3144 11.59H65.7244L72.3844 27.52L79.0144 11.59H83.3644ZM105.246 27.67V31H86.2861V11.59H105.216V14.92H90.2761V20.08H102.516V22.57H90.2761V27.67H105.246ZM125.063 22.54C126.643 22.66 127.783 23 128.483 23.56C129.183 24.12 129.533 25.06 129.533 26.38V31H125.543V26.65C125.543 25.59 125.153 24.86 124.373 24.46C123.593 24.06 122.363 23.86 120.683 23.86H113.333V31H109.343V11.59H122.513C124.833 11.59 126.653 12.08 127.973 13.06C129.293 14.02 129.953 15.49 129.953 17.47C129.953 20.31 128.323 22 125.063 22.54ZM122.513 20.68C123.553 20.68 124.383 20.41 125.003 19.87C125.643 19.33 125.963 18.6 125.963 17.68C125.963 16.84 125.643 16.2 125.003 15.76C124.383 15.3 123.553 15.07 122.513 15.07H113.333V20.68H122.513ZM137.098 24.46C137.218 25.52 137.848 26.39 138.988 27.07C140.128 27.73 141.518 28.06 143.158 28.06C144.578 28.06 145.658 27.83 146.398 27.37C147.138 26.89 147.508 26.23 147.508 25.39C147.508 24.81 147.288 24.35 146.848 24.01C146.408 23.67 145.778 23.4 144.958 23.2C144.138 23 142.958 22.79 141.418 22.57C138.798 22.13 136.788 21.51 135.388 20.71C133.988 19.89 133.288 18.64 133.288 16.96C133.288 15.2 134.038 13.8 135.538 12.76C137.038 11.72 139.188 11.2 141.988 11.2C144.748 11.2 146.888 11.8 148.408 13C149.928 14.18 150.668 15.81 150.628 17.89H146.728C146.668 16.77 146.198 15.94 145.318 15.4C144.438 14.84 143.268 14.56 141.808 14.56C140.408 14.56 139.308 14.77 138.508 15.19C137.708 15.59 137.308 16.21 137.308 17.05C137.308 17.67 137.518 18.16 137.938 18.52C138.378 18.86 138.998 19.13 139.798 19.33C140.598 19.53 141.888 19.78 143.668 20.08C145.328 20.34 146.708 20.66 147.808 21.04C148.908 21.4 149.788 21.95 150.448 22.69C151.108 23.41 151.438 24.36 151.438 25.54C151.438 27.42 150.738 28.87 149.338 29.89C147.938 30.91 145.808 31.42 142.948 31.42C140.748 31.42 138.878 31.04 137.338 30.28C135.818 29.5 134.698 28.57 133.978 27.49C133.258 26.39 132.948 25.38 133.048 24.46H137.098ZM173.918 27.67V31H154.958V11.59H173.888V14.92H158.948V20.08H171.188V22.57H158.948V27.67H173.918ZM194.905 27.67V31H180.445H178.015V11.59H182.005V27.67H194.905ZM203.14 11.59V31H199.15V11.59H203.14Z" fill="white"/>
<path d="M223.187 31L217.697 23.89L212.057 31H207.197L215.477 21.13L207.497 11.59H212.357L217.787 18.4L223.307 11.59H228.167L220.007 21.1L228.257 31H223.187Z" fill="#1F6BFF"/>
<defs>
<clipPath id="clip0_97_1553">
<rect width="45.7143" height="40" fill="white" transform="matrix(-1 0 0 1 45.7144 0)"/>
</clipPath>
</defs>
</svg>
